
<!-- Uploaded to: SVG Repo, www.svgrepo.com, Generator: SVG Repo Mixer Tools -->
<svg fill="#000000" height="800px" width="800px" version="1.1" id="Layer_1" xmlns="http://www.w3.org/2000/svg" xmlns:xlink="http://www.w3.org/1999/xlink" 
	 viewBox="0 0 512 512" xml:space="preserve">
<g>
	<g>
		<path d="M457.143,356.571H512c0-128.967-95.369-235.639-219.429-253.389V82.286c0-20.198-16.373-36.571-36.571-36.571
			s-36.571,16.373-36.571,36.571v20.897C95.369,120.933,0,227.604,0,356.571h54.857v54.857H0v54.857h512v-54.857h-54.857V356.571z
			 M402.286,411.429H109.714v-54.857h292.571V411.429z M62.387,301.714c9.214-32.711,26.695-62.685,51.383-87.371
			c37.99-37.994,88.501-58.915,142.23-58.915c53.729,0,104.24,20.921,142.23,58.915c24.688,24.686,42.169,54.661,51.383,87.371
			H62.387z"/>
	</g>
</g>
</svg>
